<svg height="44" viewBox="0 0 72 44" width="72" xmlns="http://www.w3.org/2000/svg" xmlns:xlink="http://www.w3.org/1999/xlink"><defs><rect id="a" height="44" rx="4" width="72"/><mask id="b" fill="#fff"><use fill="#fff" fill-rule="evenodd" xlink:href="#a"/></mask></defs><g fill="none" fill-rule="evenodd"><use fill="#ffb8b8" fill-rule="nonzero" xlink:href="#a"/><g fill="#fff" mask="url(#b)"><path d="m0 0h72v44h-72z"/></g><g fill-rule="nonzero" transform="translate(12 8)"><path d="m14.0485907 0c-7.75094661 0-14.0485907 6.2780711-14.0485907 13.9950722.00545277 7.7324553 6.29202802 13.999492 14.0485907 14.0049278h18.9127051c7.7410601 0 14.0387042-6.2780711 14.0387042-14.0049278 0-7.72685678-6.2976441-13.9950722-14.0387042-13.9950722z" fill="#fff"/><path d="m33.5461347 29h-19.0822943c-7.98587844-.0055175-14.45833859-6.496397-14.4638404-14.5050017 0-7.99275615 6.48379052-14.4949983 14.4638404-14.4949983h19.0822943c7.9700748 0 14.4538653 6.50224215 14.4538653 14.4949983 0 7.9927561-6.4837905 14.5050017-14.4538653 14.5050017zm-19.0822943-28.70989997c-7.82044888 0-14.17456359 6.37219731-14.17456359 14.20489827.00550166 7.8483869 6.34844828 14.2093843 14.17456359 14.2149017h19.0822943c7.8104738 0 14.1645885-6.3721973 14.1645885-14.2149017 0-7.84270441-6.3541147-14.20489827-14.1645885-14.20489827z" fill="#231f20"/><g fill="#e31f28"><path d="m37 14.2800875 6.0241467 7.7199125c2.7123678-4.2351687 2.6248923-9.8654529-.2175123-14z"/><path d="m18.3910464 6.98502823c4.7497303 0 8.3220065 1.16470553 8.6812298 5.01497177l4.9892125-5.01497177h9.9385113c-2.2332692-2.53038506-5.5056169-3.98730642-8.9506472-3.98502556h-19.0887271c-3.4473325.00010661-6.72175693 1.45632914-8.9606257 3.98502556z"/><path d="m11.6947548 12-1.6947548 5h6.8188957c2.0237367 0 2.6318545-.8905579 3.0804661-2.6287554.4486116-1.7381974-.6679328-2.3712446-2.053644-2.3712446z"/><path d="m32.7218085 21.5960444-5.3462766-6.5960444c-.9904255 4.4928147-4.2244681 6.5960444-10.2882979 6.5960444h-12.087234c2.25963484 2.7860558 5.7000057 4.4085364 9.3382979 4.4039459h19.3335106c3.6347475.0015709 7.0707572-1.6206086 9.3281915-4.4039459z"/></g></g></g></svg>