<?xml version="1.0" encoding="UTF-8"?>
<svg width="108px" height="29px" viewBox="0 0 108 29" version="1.1" xmlns="http://www.w3.org/2000/svg" xmlns:xlink="http://www.w3.org/1999/xlink">
    <!-- Generator: sketchtool 49.1 (51147) - http://www.bohemiancoding.com/sketch -->
    <title>84EDFDA3-20F4-4EA6-856A-93AA1A489FB4</title>
    <desc>Created with sketchtool.</desc>
    <defs></defs>
    <g id="Preview" stroke="none" stroke-width="1" fill="none" fill-rule="evenodd">
        <g id="Icons" transform="translate(-439.000000, -164.000000)" fill="#1F1E21" fill-rule="nonzero">
            <g id="components/logo" transform="translate(439.000000, 164.000000)">
                <path d="M22.1833382,10.1903054 C20.535577,9.40224572 19.6042337,11.7306039 19.6042337,11.7306039 L20.3564725,12.5007532 C20.5534875,12.214186 21.1982636,11.2649323 21.6639352,11.5694099 C27.8609502,15.7067233 13.2460248,32.9186636 17.7594576,16.2798577 C17.9206516,15.7067233 16.7027412,14.8291114 16.3445322,15.8320965 C15.5564725,18.1425442 11.3475173,26.452992 9.14453224,27.2410517 C5.52662179,28.5126935 10.0579651,15.6171711 11.293786,11.2828427 C12.5296069,6.94851438 10.1296069,6.3574696 7.69378597,7.52164871 C-5.25546776,13.7007532 0.834084481,23.891798 6.49378597,16.2440368 C6.79826359,15.8320965 5.24005463,15.2768726 5.24005463,15.2768726 C3.59229344,18.3932905 -1.67337821,16.2440368 5.43706956,10.6201562 C8.32065165,8.3455293 9.52065165,8.95448453 9.77139791,9.22314124 C10.6848307,10.2440368 6.29677105,19.3962756 5.61617403,23.8201562 C4.93557702,28.2440368 7.80124866,28.9425442 7.80124866,28.9425442 C10.935577,29.4261263 15.1624427,21.5276189 15.1624427,21.5276189 C16.2728905,27.491798 20.3385621,24.3574696 20.3385621,24.3574696 C26.6251293,19.0380666 24.2609502,11.17538 22.1833382,10.1903054 Z" id="Shape-Copy-2"></path>
                <path d="M28.5843937,14.9379311 C29.1933489,15.3498714 29.7306623,15.5110654 30.2679758,14.8304684 C30.6082743,14.3827072 30.2321549,13.6483789 29.6231997,13.2364386 C29.0142444,12.8244983 28.4948414,12.9856923 28.1724534,13.4513639 C27.8500653,13.9170356 27.9754385,14.5259908 28.5843937,14.9379311 Z" id="Shape-Copy-3"></path>
                <path d="M106.098507,11.7605457 L103.089552,14.4829338 C103.089552,14.4829338 103.626866,11.5635308 103.698507,11.0978591 C104.002985,8.98442631 103,7.99935169 102.140299,9.9157696 C98.3074627,18.3695009 99.9552239,12.172486 99.8477612,10.3097994 C99.8477612,7.24711288 98.3432836,9.12770989 94.5283582,13.6590532 C87.5074627,21.9695009 90.158209,12.011292 90.158209,12.011292 C103.447761,2.25009795 97.0537313,-0.400648315 95.5492537,0.0471128792 C90.9641791,1.42621736 89.119403,8.16054572 88.4925373,12.4769636 C81.8477612,18.6023368 83.441791,15.2172621 83.9432836,12.7277099 C85.1074627,6.88890392 80.038806,12.4053218 80.038806,12.4053218 C80.038806,12.4053218 80.1283582,11.6889039 79.9313433,11.0620383 C79.358209,9.28890392 77.0477612,12.1366651 77.0477612,12.1366651 C76.7970149,10.2560681 75.8298507,10.4351726 74.7014925,11.9575606 C70.958209,17.0441278 66.9283582,20.3575606 68.8447761,14.0351726 C69.2208955,12.7814412 67.8238806,13.0142771 67.8238806,13.0142771 C63.7761194,10.6680084 63.1492537,17.2232323 63.1492537,17.2232323 C60.158209,21.3426353 56.2895522,16.5247248 56.2895522,16.5247248 L56.4328358,15.7366651 C69.7223881,5.97547109 63.3283582,3.32472482 61.8238806,3.77248601 C56.0746269,5.50979945 54.4626866,17.6889039 54.4626866,17.6889039 C47.9970149,22.8471129 48.5522388,18.3157696 48.5522388,18.3157696 C52.3134328,18.1903965 54.6776119,13.3366651 50.7552239,13.6053218 C47.280597,13.8381577 46.8507463,18.6202472 46.8507463,18.6202472 C40.3313433,23.6351726 41.9074627,20.0351726 42.4985075,17.850098 C44.2358209,11.4023368 38.2179104,16.4172621 38.2179104,16.4172621 C37.6447761,13.372486 34.761194,16.972486 34.761194,16.972486 C27.4179104,25.211292 28.8149254,20.6262174 29.1373134,19.5515905 C29.4238806,18.530695 29.7820896,17.2590532 28.8865672,16.7933815 C27.4716418,16.0769636 25,18.9426353 25,18.9426353 L26.0746269,19.6411427 C27.4537313,17.9396502 27.9731343,18.33368 27.9731343,18.33368 C26.7552239,22.8650233 26.8447761,23.3665159 27.561194,23.8142771 C29.6567164,25.1038293 36.7850746,16.0948741 36.9820896,17.0083069 C37.1253731,17.6709935 36.0686567,21.091889 36.2119403,21.8262174 C36.4447761,23.0799487 37.6626866,22.7933815 37.9671642,20.8053218 C38.6119403,16.3097994 40.3492537,16.291889 40.9761194,16.650098 C41.6567164,17.0262174 39.4895522,21.3247248 40.4746269,22.0411427 C42.4626866,23.5277099 46.9761194,19.5874114 46.9761194,19.5874114 C48.4985075,24.011292 54.3731343,19.0321875 54.3731343,19.0321875 C53.3701493,22.1844263 53.7462687,29.3844263 57.4,27.4859188 C61.2507463,25.4620383 57.238806,18.7277099 57.238806,18.7277099 C60.5880597,21.3068144 63.5253731,18.3157696 63.5253731,18.3157696 C65.2626866,20.9844263 67.161194,17.8142771 67.161194,17.8142771 C68.2179104,22.811292 75.3820896,12.7993517 75.3820896,12.7993517 C74.6119403,16.3456203 74.5761194,16.3456203 74.4507463,17.0083069 C74.0925373,18.9068144 75.8477612,18.3515905 75.9731343,17.5456203 C76.8507463,11.850098 78.4626866,12.530695 78.6955224,12.6560681 C79.2328358,12.9784562 78.2835821,15.9874114 78.1940299,16.4889039 C78.1044776,16.9903965 79.519403,17.3486054 79.5731343,16.9903965 C80.6119403,10.7396502 82.7970149,11.3665159 82.2776119,13.2650233 C79.9492537,21.7545756 88.1701493,13.891889 88.1701493,13.891889 C87.4179104,18.9605457 91.3761194,19.730695 94.1880597,16.0948741 C95.5671642,14.3038293 97.8597015,11.491889 98.3432836,10.8471129 C98.1283582,12.5486054 97.8776119,15.1993517 98.7373134,15.4321875 C100.868657,16.0232323 102.462687,11.8321875 102.462687,11.8321875 L101.871642,15.1277099 C101.871642,15.1277099 100.080597,16.5784562 97.2149254,19.0142771 C94.0089552,21.7545756 94.3134328,25.372486 98.1283582,24.853083 C101.925373,24.33368 102.874627,15.8083069 102.874627,15.8083069 C103.608955,15.1993517 105.579104,13.4083069 107.119403,11.9933815 C106.761194,11.653083 106.402985,11.653083 106.098507,11.7605457 Z M96.5880597,1.58741139 C99.9014925,3.86203825 90.2119403,11.13368 90.2119403,11.13368 C93.2746269,-1.00960354 96.5880597,1.58741139 96.5880597,1.58741139 Z M62.8626866,5.31278452 C66.1761194,7.58741139 56.4865672,14.8590532 56.4865672,14.8590532 C59.5492537,2.69785915 62.8626866,5.31278452 62.8626866,5.31278452 Z M50.9880597,15.2172621 C51.919403,15.3605457 49.680597,17.7426353 48.8208955,17.330695 C48.3910448,17.1157696 48.838806,14.8769636 50.9880597,15.2172621 Z M56.1462687,26.3754711 C53.8,26.5903965 56.0567164,18.6739786 56.0567164,18.6739786 C58.3492537,22.7038293 57.9731343,26.2680084 56.1462687,26.3754711 Z M65.2268657,17.6172621 C63.9373134,17.6889039 64.7074627,13.211292 66.8567164,13.9993517 C67.4656716,14.2142771 67.0537313,17.5097994 65.2268657,17.6172621 Z M100.277612,21.2889039 C98.5761194,26.1426353 93.8656716,22.9903965 98.3074627,19.4441278 C99.6865672,18.33368 101.746269,16.6680084 101.746269,16.6680084 C101.746269,16.6680084 101.477612,17.9575606 100.277612,21.2889039 Z" id="Shape-Copy-4"></path>
            </g>
        </g>
    </g>
</svg>