<svg height="44" viewBox="0 0 72 44" width="72" xmlns="http://www.w3.org/2000/svg" xmlns:xlink="http://www.w3.org/1999/xlink"><defs><rect id="a" height="44" rx="4" width="72"/><mask id="b" fill="#fff"><use fill="#fff" fill-rule="evenodd" xlink:href="#a"/></mask></defs><g fill="none" fill-rule="evenodd"><use fill="#ffb8b8" fill-rule="nonzero" xlink:href="#a"/><g fill="#fff" mask="url(#b)"><path d="m0 0h72v44h-72z"/></g><g transform="translate(10 1)"><path d="m0 0h51.922177v42.872066h-51.922177z"/><g fill-rule="nonzero"><path d="m17.825034 37.3993388v-2.1322314c.0250313-.3618231-.1061598-.7169661-.36009-.9747878-.2539303-.2578217-.6060321-.393378-.9664406-.3720717-.4761947-.0313623-.9316385.2001326-1.1885714.6041323-.2342491-.3919541-.6631669-.6237646-1.1178232-.6041323-.3958659-.0201044-.7727265.1718986-.9904761.5046281v-.4193388h-.7357824v3.3938016h.7428572v-1.8799173c-.0333306-.2354921.040393-.4735709.2008181-.6485101s.390584-.2682362.626937-.2541345c.4881633 0 .7357823.3198347.7357823.8955371v1.8870248h.7428571v-1.8799173c-.0306801-.2349567.0439599-.4714814.203784-.6457652s.3883662-.2683712.6239711-.2568794c.502313 0 .7428572.3198347.7428572.8955371v1.8870248zm4.1387755-1.6951239v-1.695124h-.7428571v.4122314c-.2531145-.3281431-.6482973-.5134118-1.0612245-.4975206-.9768302 0-1.7687075.7955271-1.7687075 1.7768595s.7918773 1.7768595 1.7687075 1.7768595c.4129272.0158911.80811-.1693775 1.0612245-.4975207v.4122314h.7357823zm-2.7344217 0c.0327193-.5576963.5031767-.9868293 1.0588864-.9658751s.9928221.484309.9838348 1.0429001c-.0089872.5585912-.4607774 1.0075121-1.0168709 1.010413-.284707.006708-.5590433-.1074429-.7556487-.3144241-.1966053-.2069812-.2972698-.4876219-.2772765-.7730139zm18.4546938-1.7768595c.2422334-.0006289.4823592.0452053.707483.1350413.2148842.0864507.4107871.2144349.5765987.3766942.1636682.1607944.2935764.3529297.3820408.5650413.1848151.4556411.1848151.9658465 0 1.4214876-.0883796.2121579-.2182986.4043092-.3820408.5650414-.1658116.1622592-.3617145.2902434-.5765987.3766942-.4664579.1820885-.9838822.1820885-1.4503401 0-.2138819-.086365-.4086416-.2143877-.5730612-.3766942-.1621043-.1613621-.2907526-.3534121-.3785034-.5650414-.1844394-.455715-.1844394-.9657726 0-1.4214876.0877508-.2116292.2163991-.4036792.3785034-.5650413.1644196-.1623065.3591793-.2903293.5730612-.3766942.2332136-.0971133.4833296-.1466422.7357823-.1457025zm0 .7107438c-.1440674-.0019742-.28711.0245926-.4209523.0781818-.1260675.0507791-.2404385.1269747-.3360545.2238843-.0975434.1020194-.1733716.2229364-.2228571.3553719-.1080659.2837442-.1080659.5975781 0 .8813223.0493961.1324801.125235.2534143.2228571.3553719.0955519.096988.2099401.1731951.3360545.2238843.2694937.1060126.5688735.1060126.8383673 0 .1321445-.0490706.2526307-.1253268.3537415-.2238843.097781-.1018326.1736419-.2228018.2228571-.3553719.1080659-.2837442.1080659-.5975781 0-.8813223-.0492152-.1325701-.1250761-.2535393-.2228571-.3553719-.1011108-.0985575-.221597-.1748137-.3537415-.2238843-.1334431-.0613702-.2777909-.0952066-.4244898-.0995041zm-11.7229932 1.0661157c0-1.0661157-.6579591-1.7768595-1.6024489-1.7768595-.9768302.0137387-1.7576211.8204031-1.7439455 1.8017355s.8166391 1.7657221 1.7934693 1.7519835c.5036092.017286.995939-.1522185 1.3831292-.4761984l-.3537415-.5472727c-.2793277.2250494-.6253789.350102-.9834013.3553719-.5057208.043693-.9541893-.324927-1.0117007-.8315702h2.5080272c.0106122-.088843.0106122-.177686.0106122-.2771901zm-2.515102-.2985124c.0283934-.4688245.4204696-.8313226.8878912-.8209091.2223629-.0047626.4374968.0794362.5980491.2340635s.2533635.3670094.2580053.5903993zm5.6103401-.5330579c-.3230476-.1868703-.6884736-.2872138-1.0612245-.2914049-.4032653 0-.6438095.1492562-.6438095.3980165s.2546939.291405.5730612.3340496l.3537415.0497521c.7357824.1066115 1.1814966.4193388 1.1814966 1.0163636s-.5659864 1.1087603-1.5387755 1.1087603c-.5213728.0139328-1.0334447-.1405214-1.4609524-.4406611l.3537415-.5757025c.3246298.2419477.7208553.3671212 1.124898.3553719.5023129 0 .7711565-.1492562.7711565-.4122314 0-.1919008-.1910204-.2985124-.5942858-.3553719l-.3537414-.0497521c-.7570068-.1066116-1.167347-.4477686-1.167347-1.0021487 0-.6752067.5518367-1.0874381 1.414966-1.0874381.4830839-.0162601.9606673.1070779 1.3760544.3553719zm3.537415-.1919008h-1.1991837v1.5316529c0 .3553719.1202721.568595.4881633.568595.2296245-.0076395.4535685-.0736651.6508843-.1919008l.2122449.632562c-.2758095.1729161-.5946187.2640723-.9197279.2629752-.870204 0-1.1744217-.4690909-1.1744217-1.2580165v-1.5458678h-.6862585v-.6752066h.6862585v-1.0305785h.7428571v1.0305785h1.1991837zm2.5434014-.7604959c.1784704.0006928.3555179.0319391.5235374.0923967l-.2263946.7107438c-.1462056-.0585609-.3024821-.0875449-.4598639-.0852892-.4810885 0-.707483.3127272-.707483.8742148v1.9012397h-.7357823v-3.3938016h.7287074v.4122314c.1839396-.3174171.5259844-.5083178.8914286-.4975207zm5.0868027 2.985124c.0459909-.0005661.0916504.0078837.1344217.024876.0406247.0166542.0778107.0407557.1096599.0710744.031083.0306407.0562671.0667838.0742857.1066116.0362094.0838846.0362094.1790906 0 .2629752-.0180186.0398278-.0432027.0759709-.0742857.1066116-.0318492.0303187-.0690352.0544202-.1096599.0710743-.0423491.0187727-.0881332.0284558-.1344217.0284298-.1368804-.0010365-.2608799-.0813156-.3183674-.2061157-.0357901-.0839715-.0357901-.1790038 0-.2629752.0180187-.0398278.0432028-.0759709.0742857-.1066116.0318493-.0303187.0690353-.0544202.1096599-.0710744.0372286-.0148732.0767017-.0232849.1167347-.024876zm0 .6005785c.0353067.0002155.070262-.00705.102585-.0213223.0304346-.0136507.0580364-.0329404.0813606-.0568595.0609113-.061629.0876066-.1494958.0713333-.2347914s-.0734165-.1570192-.1526939-.1916549c-.0323549-.0141717-.0672887-.0214327-.102585-.0213223-.0352658.0001872-.0701406.0074359-.1025851.0213223-.031782.0130919-.0606447.0324224-.0848979.0568595-.0917241.1005373-.0917241.2548347 0 .3553719.0494827.0503336.1170649.0785159.187483.0781818zm.0212245-.4228925c.0330222-.0016088.0655627.0084498.0919728.0284297.0219682.0182647.0338217.0460504.0318367.0746281.0010269.0238651-.0079555.047069-.0247619.0639669-.0205035.0187089-.0466597.0299704-.0742857.0319835l.102585.1172727h-.0813605l-.0955102-.1172727h-.0318368v.1172727h-.0672109v-.3269421zm-.0778232.0604132v.0852892h.0778232c.0138484.0041479.0286005.0041479.0424489 0 .0050454-.0100587.0050454-.0219247 0-.0319834.0050454-.0100588.0050454-.0219248 0-.0319835-.0138484-.0041479-.0286005-.0041479-.0424489 0z" fill="#000"/><g transform="translate(5.306122 5.330579)"><path d="m15.083537 2.782562h11.142857v20.117603h-11.142857z" fill="#7673c0"/><path d="m15.7910204 12.8431405c-.0041661-3.9263292 1.789523-7.63639337 4.8639456-10.06057852-5.2212987-4.12229564-12.71929294-3.52184764-17.22459396 1.37936531-4.50530102 4.90121294-4.50530102 12.45765971 0 17.35887271 4.50530102 4.9012129 12.00329526 5.5016609 17.22459396 1.3793653-3.0734445-2.4234156-4.8670241-6.1319427-4.8639456-10.0570248z" fill="#eb001b"/><g fill="#00a1df"><path d="m40.0435374 20.7679339v-.3980165h.1662585v-.0852893h-.4209524v.0852893h.1662585v.4122314zm.8171429 0v-.4975207h-.127347l-.1485714.3553719-.1485714-.3553719h-.1308844v.4975207h.0919728v-.3731405l.1379592.3233884h.0955102l.1379592-.3233884v.3766942z"/><path d="m41.2568707 12.8431405c-.0011776 4.8969068-2.7847018 9.3635222-7.1689458 11.5037345-4.3842439 2.1402123-9.5999294 1.5784907-13.4329589-1.4467097 3.0721035-2.425473 4.865818-6.133507 4.865818-10.0588017 0-3.92529459-1.7937145-7.63332863-4.865818-10.05880162 3.8329977-3.02737584 9.0501542-3.59037115 13.435723-1.44987964 4.3855687 2.14049151 7.1696055 6.60867835 7.1697192 11.50690446z"/></g></g></g></g></g></svg>