<svg height="44" viewBox="0 0 72 44" width="72" xmlns="http://www.w3.org/2000/svg" xmlns:xlink="http://www.w3.org/1999/xlink"><defs><rect id="a" height="44" rx="4" width="72"/><mask id="b" fill="#fff"><use fill="#fff" fill-rule="evenodd" xlink:href="#a"/></mask></defs><g fill="none" fill-rule="evenodd"><use fill="#ffb8b8" fill-rule="nonzero" xlink:href="#a"/><g fill="#fff" mask="url(#b)"><path d="m0 0h72v44h-72z"/></g><g transform="translate(10 1)"><path d="m0 0h52v43h-52z"/><g fill-rule="nonzero"><path d="m13.4114724 36.8561151v-1.7266187c.0252512-.2937568-.1075113-.5820693-.3644173-.7913836s-.6131116-.3193889-.9777421-.3021416c-.4805237-.0253963-.9401078.1620616-1.1993764.4892086-.2363786-.3173929-.6691956-.5051063-1.12798506-.4892086-.39946469-.01628-.77975121.1391984-.99948039.4086331v-.3395683h-.74247115v2.7510791h.74961029v-1.5136691c-.0322838-.1904776.04257703-.382631.2041536-.5240231.16157656-.1413921.39300353-.2172645.63112644-.2069121.49260107 0 .74247117.2589928.74247117.7251798v1.5309353h.7496103v-1.5251799c-.0309591-.190261.0443595-.3817918.2056365-.5229218.161277-.1411299.3918968-.2173191.6296435-.2080134.5068794 0 .7496103.2589928.7496103.7251798v1.5309353zm11.0906628-2.7510791h-1.2207939v-.8345324h-.7496103v.8345324h-.6782189v.5467625h.6924972v1.2661871c0 .6388489.3069832 1.018705 1.1850981 1.018705.3280647.0008884.6497721-.0729272.928089-.2129496l-.2141744-.5122302c-.1991096.0957438-.4250894.1492094-.6568014.1553956-.3569573 0-.4926011-.1841726-.4926011-.4604316v-1.2546763h1.2136548zm6.3324222-.0690648c-.3687664-.0087432-.7139207.1458427-.8995324.4028777v-.3338129h-.735332v2.7510791h.7424711v-1.5424461c0-.4546762.242731-.7079136.7139146-.7079136.1588047-.0017512.3164837.0217165.4640445.0690647l.2284526-.5755395c-.1695647-.0489025-.34821-.0742032-.5282967-.0748202zm-9.5735944.2877698c-.4202725-.2014455-.9034767-.3013293-1.3921334-.2877698-.8638366 0-1.4278291.333813-1.4278291.8805755 0 .4489209.4140705.7251799 1.177959.8115108l.3569573.0402878c.4069313.0460432.5996883.1323741.5996883.2877698 0 .2129496-.2712876.3338129-.7781669.3338129-.4077157.0095143-.8075433-.0918475-1.1351242-.2877698l-.3569573.4661871c.4324944.2434505.9505136.3685329 1.4778032.3568345.9852021 0 1.5563337-.3741007 1.5563337-.8978417s-.4497661-.7366906-1.1922373-.8230216l-.3569573-.0402877c-.3212615-.0345324-.5782708-.086331-.5782708-.2705036 0-.1841727.242731-.3223022.6496623-.3223022.3761172.0035223.7448256.0847688 1.0708718.2359712zm19.8860902-.2877698c-.3687663-.0087432-.7139206.1458427-.8995323.4028777v-.3338129h-.735332v2.7510791h.7424711v-1.5424461c0-.4546762.242731-.7079136.7139146-.7079136.1588046-.0017512.3164837.0217165.4640445.0690647l.2284526-.5755395c-.1695647-.0489025-.34821-.0742032-.5282967-.0748202zm-9.5664551 1.4388489c-.0178558.3909165.1694493.7698022.5159402 1.0436571.3464909.273855.8200873.4173241 1.3045419.3951918.4457963.0182849.8839098-.0987626 1.2279331-.3280575l-.3569573-.4834533c-.2566627.1577874-.5696386.2445831-.8923932.2474821-.5690968-.0371214-1.0074804-.4202851-1.0074804-.8805756 0-.4602904.4383836-.8434542 1.0074804-.8805755.3227546.0028989.6357305.0896946.8923932.247482l.3569573-.4834532c-.3440233-.229295-.7821368-.3463424-1.2279331-.3280576-.4844546-.0221322-.958051.1213368-1.3045419.3951918s-.533796.6527406-.5159402 1.0436571zm6.9535278 0v-1.3697841h-.7424711v.3338129c-.2557944-.2653381-.6543112-.415266-1.0708719-.4028777-.9857103 0-1.7847864.6441946-1.7847864 1.4388489s.7990761 1.4388489 1.7847864 1.4388489c.4165607.0123883.8150775-.1375396 1.0708719-.4028777v.333813h.7424711zm-2.7628493 0c.0330167-.4516061.507751-.7991055 1.0685125-.7821374.5607616.0169681 1.0018476.3921793.9927787.84451-.009069.4523308-.4649663.8158539-1.0261151.8182029-.2857304.0029147-.5599859-.0905099-.7565488-.2577166-.1965628-.1672068-.2975677-.3929986-.2786273-.6228589zm-8.9596278-1.4388489c-.9857103.0111252-1.7735994.6643385-1.7597994 1.4589928.0137999.7946543.8240631 1.4298302 1.8097734 1.418705.5135685.0212515 1.0186152-.112074 1.4171204-.3741007l-.3569573-.4431655c-.281867.1822385-.6310641.2835024-.9923412.2877698-.5103182.0353814-.9628636-.2631163-1.0208978-.6733813h2.5343967c0-.0748201 0-.1496402 0-.2302158 0-.8633093-.6639406-1.4388489-1.6205861-1.4388489zm0 .5352518c.2243844-.0038566.441474.0643251.6034859.1895378.1620118.1252127.2556668.2971934.2603507.4780881h-1.7847864c.026889-.3842235.4295903-.6807518.9066715-.6676259zm18.601044.9093525v-2.4805755h-.7139146v1.4388489c-.2557944-.2653381-.6543112-.415266-1.0708718-.4028777-.9857104 0-1.7847865.6441946-1.7847865 1.4388489s.7990761 1.4388489 1.7847865 1.4388489c.4165606.0123883.8150774-.1375396 1.0708718-.4028777v.333813h.7139146zm1.2386417.9755396c.0464091-.0004584.0924836.0063839.1356438.0201439.040994.013486.078518.0330027.1106568.0575539.0313655.0248119.0567785.0540795.074961.0863309.0365385.0679273.0365385.1450224 0 .2129497-.0181825.0322514-.0435955.061519-.074961.0863309-.0321388.0245512-.0696628.0440679-.1106568.057554-.0427341.0152015-.0889344.0230426-.1356438.0230216-.1381247-.0008394-.2632514-.065847-.3212615-.1669065-.0361155-.0679976-.0361155-.144952 0-.2129497.0181824-.0322514.0435955-.061519.074961-.0863309.0321388-.0245512.0696628-.0440679.1106568-.0575539.0464936-.0149099.0963562-.0217729.1463525-.0201439zm0 .4863309c.0356277.0001745.0709008-.0057089.1035176-.0172662.0307114-.0110539.058564-.0266742.0821002-.0460432.092558-.0814121.092558-.2063576 0-.2877697-.0234801-.0194224-.0513462-.0350502-.0821002-.0460432-.032649-.0114759-.0679004-.0173556-.1035176-.0172662-.0355864.0001516-.0707781.0060214-.1035176.0172662-.0320709.0106015-.061196.0262547-.0856697.0460432-.092558.0814121-.092558.2063576 0 .2877697.0245338.0197294.0536433.0353743.0856697.0460432.0360134.0125203.0750331.0184184.1142264.0172662zm.0214175-.342446c.0333224-.0013028.0661587.0068424.0928089.0230215.0221679.0147903.0341292.0372903.0321261.0604317.0010362.0193252-.0080278.0381151-.024987.0517986-.0206899.0151499-.0470839.0242691-.074961.0258992l.1035176.0949641h-.0821002l-.0963784-.0949641h-.0321262v.0949641h-.0678219v-.2532374zm-.0785306.0489208v.0690648h.0785306c.0139743.0033588.0288605.0033588.0428348 0 .0050913-.0081453.0050913-.0177541 0-.0258993.0050913-.0081453.0050913-.017754 0-.0258993-.0139743-.0033588-.0288605-.0033588-.0428348 0zm-3.9265301-1.1683453c.0330167-.4516061.507751-.7991055 1.0685125-.7821374.5607616.0169681 1.0018476.3921793.9927787.84451-.009069.4523308-.4649663.8158539-1.0261151.8182029-.2857304.0029147-.5599859-.0905099-.7565488-.2577167-.1965628-.1672067-.2975677-.3929985-.2786273-.6228588zm-25.06911 0v-1.3755395h-.7424711v.3338129c-.2557944-.2653381-.6543112-.415266-1.0708719-.4028777-.9857103 0-1.7847864.6441946-1.7847864 1.4388489s.7990761 1.4388489 1.7847864 1.4388489c.4165607.0123883.8150775-.1375396 1.0708719-.4028777v.333813h.7424711zm-2.7628493 0c.0330167-.4516061.507751-.7991055 1.0685125-.7821374.5607616.0169681 1.0018476.3921793.9927787.84451-.009069.4523308-.4649663.8158539-1.0261151.8182029-.2869617.0045417-.5631266-.0881706-.7612726-.2555696s-.3000991-.3941307-.2810427-.6250059z" fill="#231f20"/><g transform="translate(4 4)"><path d="m15.310256 2.903425h11.307692v20.937945h-11.307692z" fill="#ff5f00"/><path d="m16.0282051 13.3742466c-.0042277-4.0864344 1.8159952-7.94778503 4.9358975-10.47082194-5.2985368-4.29039181-12.90744818-3.66545914-17.47939566 1.43561212-4.57194749 5.10107126-4.57194749 12.96564972 0 18.06672092 4.57194748 5.1010713 12.18085886 5.726004 17.47939566 1.4356122-3.1189097-2.522236-4.9390215-6.3819869-4.9358975-10.4671233z" fill="#eb001b"/><g fill="#f79e1b"><path d="m41.874359 13.3742466c-.0001154 5.0979626-2.8253361 9.7483501-7.2757802 11.9761251-4.450444 2.227775-9.7447773 1.6418223-13.6344762-1.5090018 3.1175488-2.5243773 4.9377976-6.383615 4.9377976-10.4689726 0-4.08535765-1.8202488-7.94459537-4.9377976-10.46897264 3.8896989-3.15082412 9.1840322-3.73677686 13.6344762-1.50900185 4.4504441 2.22777501 7.2756648 6.87816253 7.2757802 11.97612509z"/><path d="m40.6394872 21.8810959v-.6435617h.1687179v-.1331506h-.4271795v.1331506h.183077v.6435617zm.8292307 0v-.7767123h-.1292307l-.1507693.5547945-.1507692-.5547945h-.1148718v.7767123h.0933334v-.5825343l.14.5048631h.096923l.14-.5048631v.5880822z"/></g></g></g></g></g></svg>