<svg height="44" viewBox="0 0 72 44" width="72" xmlns="http://www.w3.org/2000/svg" xmlns:xlink="http://www.w3.org/1999/xlink"><defs><rect id="a" height="44" rx="4" width="72"/><mask id="b" fill="#fff"><use fill="#fff" fill-rule="evenodd" xlink:href="#a"/></mask><mask id="c" fill="#fff"><path d="m0 29.5833333h47.9995556v-29.41355069h-47.9995556z" fill="#fff" fill-rule="evenodd"/></mask></defs><g fill="none" fill-rule="evenodd"><use fill="#ffb8b8" fill-rule="nonzero" xlink:href="#a"/><g fill="#fff" mask="url(#b)"><path d="m0 0h72v44h-72z"/></g><g transform="translate(12 7)"><path d="m0 30h48v-29.58333333h-48z" fill="#fefefe"/><path d="m.85714286 29.1666667h46.28571424v-4.1666667h-46.28571424z" fill="#fbb216"/><g fill="#0f357f"><path d="m.85714286 5h46.28571424v-4.16666667h-46.28571424z"/><path d="m23.0769333 8.57760175-2.3253333 10.48643415h-2.8124444l2.3253333-10.48643415zm11.8311111 6.77115335 1.4808889-3.9380133.8506667 3.9380133zm3.1393334 3.7152808h2.6002222l-2.2717778-10.48643415h-2.3991111c-.5411111 0-.9957778.30290761-1.1975555.76873792l-4.22 9.71769623h2.9533333l.5857778-1.566416h3.6082222zm-7.3415556-3.4237349c.0117778-2.7671135-3.9662222-2.9206038-3.9402222-4.1571014.0095556-.3757941.3806667-.7760266 1.1931111-.878282.4024445-.0501631 1.5142222-.0902506 2.7735556.4694746l.4926666-2.22496678c-.6766666-.23602355-1.5473333-.46325785-2.6304444-.46325785-2.7802222 0-4.736 1.42450181-4.7515556 3.46596623-.0182222 1.5100362 1.3968889 2.3516606 2.4611111 2.8545773 1.0962223.5136352 1.4637778.8437681 1.4586667 1.3027385-.0077778.7035688-.8753333 1.0150513-1.682 1.0266274-1.4144444.0216516-2.2344444-.3687198-2.8884444-.6626238l-.5104445 2.2987107c.658.2909028 1.8706667.5436474 3.1266667.5565097 2.9555555 0 4.8886667-1.4082095 4.8973333-3.5883726zm-11.6477778-7.06269925-4.5564444 10.48643415h-2.9728889l-2.24244443-8.3690821c-.13577778-.5142784-.254-.70356884-.66777778-.92094202-.67622222-.35435689-1.79288889-.68577597-2.77444445-.89200182l.06622223-.30440821h4.78600003c.6091111 0 1.1575555.39122887 1.2968889 1.06864432l1.1848888 6.06865643 2.9251112-7.13730075z"/><path d="m26.6762 21.9505118h-1.1426667v1.0259843h1.2782223v.3084813h-1.6633334v-2.8464312h1.5977778v.3084813h-1.2126667v.8992904h1.1426667z"/><path d="m27.4022222 23.2848702h.4492963v-2.9982066h-.4492963z" mask="url(#c)"/><path d="m29.8880222 22.0644076c.0044445-.2321648-.1006666-.5995984-.534-.5995984-.394 0-.5604444.3421377-.5908889.5995984zm-1.1293333.2660356c.0086667.5027023.3371111.7095713.7266667.7095713.2757777 0 .4464444-.0465187.5866666-.105471l.07.2660356c-.1357778.0589523-.372.1307669-.7093333.1307669-.652 0-1.0415556-.4180253-1.0415556-1.0345592 0-.6165338.3762223-1.0980132.9935556-1.0980132.696 0 .8755555.5828774.8755555.9586714 0 .0758877-.0044444.130767-.0133333.1729982z" mask="url(#c)"/><path d="m32.3561111 23.2130984c-.1006667.0465187-.324.1183334-.6084444.1183334-.6391111 0-1.0548889-.4180254-1.0548889-1.0431341 0-.6291818.4462222-1.0894384 1.138-1.0894384.2275555 0 .4288889.0546649.534.1097585l-.0873334.282971c-.0922222-.0465188-.2366666-.0973249-.4466666-.0973249-.486 0-.7484445.3504982-.7484445.7730254 0 .4729045.3151111.7642361.7353334.7642361.2188889 0 .3633333-.0505918.4726666-.0971105z" mask="url(#c)"/><path d="m33.4366222 20.7511649v.4898399h.5513334v.2827567h-.5513334v1.1023007c0 .2536021.0744445.3970169.2888889.3970169.1048889 0 .1664445-.0083605.2233333-.0255103l.0175556.2831854c-.0744444.0252959-.1926667.0505918-.3415556.0505918-.1795555 0-.324-.0591667-.4157777-.1560628-.1051111-.1142603-.1488889-.2956189-.1488889-.5363587v-1.115163h-.3284445v-.2827567h.3284445v-.3800815z" mask="url(#c)"/><path d="m34.5260444 21.8787186c0-.2407397-.0046666-.4476087-.0175555-.6377566h.3368889l.0177778.4053774h.0128888c.0964445-.2743962.3326667-.4476087.5908889-.4476087.0395556 0 .0702223.0042874.1053334.0083605v.3507125c-.0395556-.0085748-.0786667-.0085748-.1315556-.0085748-.2711111 0-.464.194221-.5164444.4731189-.0086667.0505918-.0131111.1138315-.0131111.1732126v1.0894384h-.3851112z" mask="url(#c)"/><path d="m36.2632222 22.2672678c0 .4476087.2626667.785459.6391111.785459.3677778 0 .6433334-.3337772.6433334-.7940339 0-.3462107-.1793334-.7813858-.6346667-.7813858-.4506667 0-.6477778.4055918-.6477778.7899607m1.6766667-.0212228c0 .7558756-.5473333 1.0853653-1.0551111 1.0853653-.5691111 0-1.0153334-.4055918-1.0153334-1.0514945 0-.679988.4682223-1.0810779 1.0504445-1.0810779.6084444 0 1.02.4263858 1.02 1.0472071" mask="url(#c)"/><path d="m38.5301556 21.7941274c0-.2152295-.0046667-.3841546-.0175556-.5530797h.3413333l.022.3378502h.0086667c.1051111-.1901479.3502222-.3800815.7004444-.3800815.2931112 0 .7484445.1689251.7484445.8697072v1.2163466h-.3851111v-1.1781884c0-.3292754-.1268889-.6038859-.4902222-.6038859-.2495556 0-.4466667.1732126-.5164445.3800815-.0177778.0465187-.0264444.1097585-.0264444.1732126v1.2287802h-.3851111z" mask="url(#c)"/></g></g></g></svg>