<svg height="44" viewBox="0 0 72 44" width="72" xmlns="http://www.w3.org/2000/svg" xmlns:xlink="http://www.w3.org/1999/xlink"><defs><rect id="a" height="44" rx="4" width="72"/><mask id="b" fill="#fff"><use fill="#fff" fill-rule="evenodd" xlink:href="#a"/></mask></defs><g fill="none" fill-rule="evenodd"><use fill="#ffb8b8" fill-rule="nonzero" xlink:href="#a"/><g fill="#fff" mask="url(#b)"><path d="m0 0h72v44h-72z"/></g><g transform="translate(12 7)"><path d="m0 30h48v-30h-48z" fill="#fefefe"/><path d="m.97959184 29.0322581h46.04081636v-3.8709678h-46.04081636z" fill="#fbb216"/><g fill="#0f357f"><path d="m.97959184 4.83870968h46.04081636v-3.87096774h-46.04081636z"/><path d="m23.339186 8.8976273-2.3561994 10.2955703h-2.8497763l2.3561994-10.2955703zm11.9879298 6.6479114 1.5005459-3.8663374.8619583 3.8663374zm3.1810043 3.6476589h2.634737l-2.3017077-10.2955703h-2.4309565c-.5485188 0-1.0092207.29739438-1.2136768.7547461l-4.2757903 9.5408242h2.9925353l.5935533-1.5376952h3.6561171zm-7.439006-3.3612089c.0121593-2.7169597-4.0188691-2.8676564-3.9922988-4.0816484.0096824-.3689543.3857196-.7619021 1.2089482-.8622964.4075613-.04925 1.5340966-.088608 2.8101461.4609297l.4992062-2.1844701c-.6856486-.23172768-1.5678723-.45482608-2.6653605-.45482608-2.8171263 0-4.7986395 1.39857438-4.8144016 3.40288208-.0184641 1.482552 1.4152058 2.3088579 2.4935543 2.802621 1.1107732.5044971 1.4832077.8286212 1.4782539 1.2790274-.007881.6909736-.8871775.9967868-1.7043266 1.0081522-1.4334447.021047-2.264104-.3620088-2.9267851-.6505634l-.51722 2.2566614c.6667342.2858185 1.8954976.5339629 3.1681695.5463806 2.994787 0 4.9533327-1.3823682 4.9621144-3.52285zm-11.802163-6.9343614-4.6169258 10.2955703h-3.0123504l-2.27221026-8.2167562c-.13758006-.504918-.25737155-.6907632-.67664173-.90418-.68519827-.34790719-1.81668735-.67329411-2.81127189-.87576643l.06710124-.29886767h4.84952844c.6171963 0 1.1729207.3841081 1.3141036 1.0491939l1.2006168 5.9582006 2.9639385-7.0073945z"/></g></g></g></svg>